<!-- from devicon.fr -->
<svg xmlns="http://www.w3.org/2000/svg">

<symbol xmlns="http://www.w3.org/2000/svg" id="JavaScript-logo" viewBox="0 0 128 128">
<title>JS logo</title>
<path fill="#F0DB4F" d="M1.408 1.408h125.184v125.185h-125.184z"></path>
<path fill="#323330" d="M116.347 96.736c-.917-5.711-4.641-10.508-15.672-14.981-3.832-1.761-8.104-3.022-9.377-5.926-.452-1.69-.512-2.642-.226-3.665.821-3.32 4.784-4.355 7.925-3.403 2.023.678 3.938 2.237 5.093 4.724 5.402-3.498 5.391-3.475 9.163-5.879-1.381-2.141-2.118-3.129-3.022-4.045-3.249-3.629-7.676-5.498-14.756-5.355l-3.688.477c-3.534.893-6.902 2.748-8.877 5.235-5.926 6.724-4.236 18.492 2.975 23.335 7.104 5.332 17.54 6.545 18.873 11.531 1.297 6.104-4.486 8.08-10.234 7.378-4.236-.881-6.592-3.034-9.139-6.949-4.688 2.713-4.688 2.713-9.508 5.485 1.143 2.499 2.344 3.63 4.26 5.795 9.068 9.198 31.76 8.746 35.83-5.176.165-.478 1.261-3.666.38-8.581zm-46.885-37.793h-11.709l-.048 30.272c0 6.438.333 12.34-.714 14.149-1.713 3.558-6.152 3.117-8.175 2.427-2.059-1.012-3.106-2.451-4.319-4.485-.333-.584-.583-1.036-.667-1.071l-9.52 5.83c1.583 3.249 3.915 6.069 6.902 7.901 4.462 2.678 10.459 3.499 16.731 2.059 4.082-1.189 7.604-3.652 9.448-7.401 2.666-4.915 2.094-10.864 2.07-17.444.06-10.735.001-21.468.001-32.237z"></path>
</symbol>

<symbol id="Rails-logo" viewBox="0 0 128 128">
<title>Rails logo</title>
<path fill="#A62C39" d="M17.444 125.054s.188-29.538.188-59.564c0-58.159-4.901-62.491 21.194-62.491h72.635v83.889c0 27.615 5.162 38.433-23.859 38.433-29.021.001-70.158-.267-70.158-.267z"></path><path fill="#fff" d="M350.603 449.926s4.655.932 8.688 7.757c4.034 6.826 25.444 59.886 25.444 59.886v-43.131l-19.858-32.27 5.585 6.827 10.55-8.689-13.653-.93-16.756 10.55z"></path><path opacity=".668" fill="#fff" enable-background="new" d="M309.335 439.686s30.719 20.479 45.613 24.513c14.894 4.035 30.408 8.378 30.408 8.378l-35.373 86.88 15.204.621 19.86-49.026-.622-71.676-75.09.31z"></path><path fill="#fff" fill-opacity=".44" d="M337.881 531.221l31.956 30.733-59.571-1.256s-1.861-18.927-1.241-28.856l3.723-9.929 25.133 9.308z"></path><path fill-opacity=".362" d="M94.085 125.365l-28.856-29.788-26.375-9.929-20.479-45.612 21.721-36.304-14.584-.621-5.896 5.586-2.172 4.344-1.552 112.945 78.193-.621z"></path><path opacity=".5" fill="#83222D" enable-background="new" d="M111.773 77.89s-29.167 9.309-46.543 17.997c-17.376 8.688-26.685 29.787-26.685 29.787s37.234-1.861 51.197-1.241c13.963.621 20.479.621 21.72-18.927 1.241-19.548.311-27.616.311-27.616z"></path><path d="M26.435 96.422v18.326h4.674v-4.773l4.254 4.254h7.172l-5.688-5.688s4.093-.067 4.402-5.984c0-5.43-4.097-6.134-8.83-6.134h-5.984zm4.897 4.971h4.031v3.265h-4.031v-3.265z"></path><path d="M51.562 96.496c-2.559-.015-6.108.223-6.108 5.045v12.737h4.797v-3.116h4.65v3.042h4.822v-13.354c0-4.189-4.654-4.353-7.147-4.353l-1.014-.001zm-1.237 4.6h4.501v5.021h-4.501v-5.021z"></path><path d="M64.531 96.507h4.964v17.531h-4.964z"></path><path d="M74.692 96.741v17.531h11.947v-4.654h-7.059v-12.955l-4.888.078z"></path><path d="M102.463 96.585v4.732h-7.99v1.707h3.413c1.785 0 5.508-.077 5.508 5.508s-2.561 5.896-7.758 5.896h-6.283v-4.267h7.214c2.172 0 2.292-.708 2.292-1.324 0-.615-1.11-.902-3.369-.902s-6.447-1.11-6.447-5.454 2.172-5.973 6.516-5.973c4.345-.001 6.904.077 6.904.077z"></path><path d="M30.787 91.233h41.269s-9.154-20.789-6.826-39.873c2.326-19.082 17.376-27.771 25.909-28.702 8.533-.931 13.187 4.344 13.187 4.344l1.861-2.792s-12.256-12.412-27.771-11.015c-15.514 1.395-26.219 11.635-32.89 24.046-6.671 12.412-10.55 21.101-13.188 34.132-2.637 13.033-1.551 19.86-1.551 19.86z"></path><path d="M22.565 70.444l8.066.62-1.396 8.068-7.602-.931.932-7.757z"></path><path d="M35.286 53.377l2.172-6.05-7.137-2.793-2.327 6.516 7.292 2.327z"></path><path d="M45.37 32.588l4.189-4.965-5.43-3.568-4.343 4.81 5.584 3.723z"></path><path d="M56.385 13.351l3.724 4.499 5.12-2.947-3.724-4.189-5.12 2.637z"></path><path d="M74.538 8.231l.93 4.499 6.361-.155-.62-4.034-6.671-.31z"></path><path d="M96.102 13.04l-.155 2.792 4.343 2.328.931-1.396-5.119-3.724z"></path><path d="M95.172 24.986v2.327l4.189.465v-1.861l-4.189-.931z"></path><path d="M81.829 27.002l2.017 3.724 2.948-2.327-.621-2.482-4.344 1.085z"></path><path d="M75.468 31.812l3.103 4.655-1.862 3.257-4.499-4.965 3.258-2.947z"></path><path d="M69.262 44.69l-2.017 4.033 5.275 4.5 1.241-5.121-4.499-3.412z"></path><path d="M67.09 58.807l-.31 5.43 6.516 2.792-.311-5.119-5.895-3.103z"></path><path d="M68.952 78.045l1.552 5.586 8.223.465-2.949-6.051h-6.826z"></path><path stroke="#5E000E" stroke-width="3" d="M17.444 125.054s.188-29.538.188-59.564c0-58.159-4.901-62.491 21.194-62.491h72.635v83.889c0 27.615 3.921 38.433-23.859 38.433-27.78.001-70.158-.267-70.158-.267z" fill="none"></path>
</symbol>

<!-- Ruby -->
<symbol id="Ruby-logo" viewBox="0 0 128 128">
<title>Ruby logo</title>
<path fill="#FFD845" d="M97.078 83.214l-68.738 40.817 89.003-6.04 6.855-89.745z"></path><path fill="#FFD845" d="M117.488 117.93l-7.649-52.799-20.837 27.514z"></path><path fill="#FFD845" d="M117.592 117.93l-56.044-4.399-32.91 10.385z"></path><path fill="#FFD845" d="M28.717 123.928l14.001-45.867-30.81 6.588z"></path><path fill="#FFD845" d="M88.996 92.797l-12.882-50.46-36.866 34.558z"></path><path fill="#FFD845" d="M121.275 43.047l-34.849-28.462-9.704 31.373z"></path><path fill="#FFD845" d="M104.978 4.437l-20.497 11.327-12.93-11.479z"></path><path fill="#FFD845" d="M3.802 100.034l8.586-15.659-6.946-18.655z"></path><path fill="#fff" d="M4.981 65.131l6.987 19.821 30.365-6.812 34.667-32.218 9.783-31.075-15.403-10.878-26.19 9.802c-8.252 7.675-24.263 22.86-24.84 23.146-.573.291-10.575 19.195-15.369 28.214z"></path><path fill="#FFD845" d="M29.519 29.521c17.882-17.73 40.937-28.207 49.785-19.28 8.843 8.926-.534 30.62-18.418 48.345-17.884 17.725-40.653 28.779-49.493 19.852-8.849-8.92.242-31.191 18.126-48.917z"></path><path fill="#FFD845" d="M28.717 123.909l13.89-46.012 46.135 14.82c-16.68 15.642-35.233 28.865-60.025 31.192z"></path><path fill="#FFD845" d="M77.062 45.831l11.844 46.911c13.934-14.65 26.439-30.401 32.563-49.883l-44.407 2.972z"></path><path fill="#FFD845" d="M121.348 43.097c4.74-14.305 5.833-34.825-16.517-38.635l-18.339 10.13 34.856 28.505z"></path><path fill="#9E1209" d="M3.802 99.828c.656 23.608 17.689 23.959 24.945 24.167l-16.759-39.14-8.186 14.973z"></path><path fill="#FFD845" d="M77.128 45.904c10.708 6.581 32.286 19.798 32.723 20.041.68.383 9.304-14.542 11.261-22.976l-43.984 2.935z"></path><path fill="#FFD845" d="M42.589 77.897l18.57 35.828c10.98-5.955 19.579-13.211 27.454-20.983l-46.024-14.845z"></path><path fill="#FFD845" d="M11.914 84.904l-2.631 31.331c4.964 6.781 11.794 7.371 18.96 6.842-5.184-12.9-15.538-38.696-16.329-38.173z"></path><path fill="#FFD845" d="M86.384 14.67l36.891 5.177c-1.969-8.343-8.015-13.727-18.32-15.41l-18.571 10.233z"></path>
</symbol>

<!-- Python -->
<symbol id="Python-logo" viewBox="0 0 128 128">
<title>Python logo</title>
<path fill="#306998" d="M63.391 1.988c-4.222.02-8.252.379-11.8 1.007-10.45 1.846-12.346 5.71-12.346 12.837v9.411h24.693v3.137h-33.961c-7.176 0-13.46 4.313-15.426 12.521-2.268 9.405-2.368 15.275 0 25.096 1.755 7.311 5.947 12.519 13.124 12.519h8.491v-11.282c0-8.151 7.051-15.34 15.426-15.34h24.665c6.866 0 12.346-5.654 12.346-12.548v-23.513c0-6.693-5.646-11.72-12.346-12.837-4.244-.706-8.645-1.027-12.866-1.008zm-13.354 7.569c2.55 0 4.634 2.117 4.634 4.721 0 2.593-2.083 4.69-4.634 4.69-2.56 0-4.633-2.097-4.633-4.69-.001-2.604 2.073-4.721 4.633-4.721z"></path><path fill="#FFD845" d="M91.682 28.38v10.966c0 8.5-7.208 15.655-15.426 15.655h-24.665c-6.756 0-12.346 5.783-12.346 12.549v23.515c0 6.691 5.818 10.628 12.346 12.547 7.816 2.297 15.312 2.713 24.665 0 6.216-1.801 12.346-5.423 12.346-12.547v-9.412h-24.664v-3.138h37.012c7.176 0 9.852-5.005 12.348-12.519 2.578-7.735 2.467-15.174 0-25.096-1.774-7.145-5.161-12.521-12.348-12.521h-9.268zm-13.873 59.547c2.561 0 4.634 2.097 4.634 4.692 0 2.602-2.074 4.719-4.634 4.719-2.55 0-4.633-2.117-4.633-4.719 0-2.595 2.083-4.692 4.633-4.692z"></path><path opacity=".444" fill="none" enable-background="new" d="M97.309 119.597c0 3.543-14.816 6.416-33.091 6.416-18.276 0-33.092-2.873-33.092-6.416 0-3.544 14.815-6.417 33.092-6.417 18.275 0 33.091 2.872 33.091 6.417z"></path>
</symbol>

<symbol id="Github-octocat" version="1.0" viewBox="0 0 560 560" preserveAspectRatio="xMidYMid meet">
 <title>Github Octocat</title>
<metadata>
Created by potrace 1.12, written by Peter Selinger 2001-2015
</metadata>
<g transform="translate(0.000000,560.000000) scale(0.100000,-0.100000)"
fill="#26A69A" stroke="none">
<path d="M2571 4839 c-733 -82 -1361 -525 -1676 -1182 -488 -1019 -73 -2233
941 -2749 60 -31 154 -72 209 -93 116 -43 165 -43 202 0 22 25 23 33 23 242
l0 215 -27 -6 c-16 -4 -86 -9 -158 -12 -152 -7 -232 7 -328 59 -95 50 -147
110 -211 239 -61 126 -113 194 -190 251 -111 83 -131 118 -78 138 107 42 291
-57 387 -207 106 -165 229 -232 404 -221 108 7 211 40 211 68 0 39 43 145 81
201 45 66 57 56 -99 83 -497 85 -752 358 -803 858 -26 260 24 468 158 647 l48
65 -17 65 c-33 127 -16 355 34 465 12 27 14 27 78 22 119 -10 299 -82 454
-181 l52 -33 110 23 c276 58 562 58 838 0 l110 -23 52 33 c156 100 335 171
456 181 l66 6 28 -84 c37 -114 45 -299 17 -405 l-19 -71 49 -63 c164 -218 207
-519 122 -856 -95 -376 -368 -595 -817 -656 -49 -7 -88 -16 -88 -19 0 -4 11
-20 24 -36 39 -47 74 -125 90 -206 13 -61 16 -145 16 -416 0 -338 0 -340 23
-366 37 -43 86 -43 202 0 1143 427 1676 1745 1150 2842 -296 618 -865 1045
-1550 1164 -139 24 -440 33 -574 18z"/>
</g>
</symbol>

<symbol id="Github-logo" viewBox="0 0 1000 410" preserveAspectRatio="xMidYMid meet">
<metadata>
Created by potrace 1.12, written by Peter Selinger 2001-2015
</metadata>
<title>Github logo</title>
<g transform="translate(0.000000,410.000000) scale(0.100000,-0.100000)"
fill="#000000" stroke="none">
<path d="M1529 3236 c-2 -2 -29 -6 -59 -9 -144 -16 -315 -82 -420 -162 -181
-139 -287 -341 -343 -650 -29 -163 -31 -537 -3 -690 100 -555 421 -806 1026
-803 203 1 376 38 547 118 44 21 86 47 92 58 7 13 11 201 11 576 0 526 -1 556
-18 565 -23 12 -742 13 -762 1 -12 -8 -15 -44 -16 -197 -1 -115 2 -193 8 -200
8 -9 52 -13 159 -13 l149 0 0 -219 c0 -148 -4 -222 -11 -227 -6 -3 -77 -9
-157 -11 -116 -5 -160 -2 -210 11 -190 49 -304 205 -343 471 -15 104 -15 351
1 446 35 212 121 355 259 427 93 48 141 57 316 57 179 0 249 -7 339 -35 33
-11 71 -20 83 -20 25 0 24 -4 79 231 42 181 46 169 -83 212 -96 32 -110 34
-248 51 -96 12 -386 21 -396 12z"/>
<path d="M4508 3149 c-11 -7 -13 -201 -13 -1088 0 -594 4 -1083 8 -1088 14
-13 446 -12 457 2 6 7 11 193 12 471 l3 459 318 1 317 0 0 -462 c0 -357 3
-464 13 -471 15 -12 442 -12 454 0 10 11 12 2152 2 2169 -10 15 -423 21 -451
6 -17 -8 -18 -38 -18 -408 0 -374 -1 -400 -17 -401 -27 0 -542 0 -585 0 l-38
1 0 399 c0 309 -3 402 -12 408 -17 11 -433 13 -450 2z"/>
<path d="M7895 3144 c-9 -9 -12 -256 -11 -1087 1 -592 5 -1079 9 -1084 5 -4
78 -8 164 -9 165 -1 183 4 183 49 0 12 3 31 6 43 5 20 9 19 67 -20 61 -41 183
-88 262 -101 67 -11 228 -13 288 -4 183 29 312 132 377 302 59 151 75 269 75
537 -1 194 -13 279 -58 400 -23 62 -70 140 -113 186 -151 163 -455 196 -722
78 -30 -13 -56 -24 -58 -24 -2 0 -4 164 -4 364 0 281 -3 367 -12 373 -22 13
-439 11 -453 -3z m822 -1054 c64 -36 103 -103 122 -210 10 -56 8 -315 -3 -360
-3 -14 -8 -38 -12 -55 -12 -58 -54 -116 -97 -136 -79 -35 -275 -16 -353 36
l-24 15 0 335 0 335 38 16 c128 57 255 66 329 24z"/>
<path d="M2785 3098 c-58 -12 -134 -73 -164 -133 -35 -66 -36 -179 -4 -240 45
-84 138 -144 224 -145 155 -1 272 113 272 263 0 76 -19 122 -73 181 -66 72
-149 96 -255 74z"/>
<path d="M3492 2871 c-3 -9 -6 -107 -6 -219 l-1 -202 -35 -10 c-19 -5 -64 -16
-100 -25 -120 -29 -110 -13 -110 -184 0 -109 3 -152 13 -158 6 -4 59 -8 117
-9 58 -1 107 -2 110 -3 3 0 6 -162 6 -358 1 -250 5 -376 14 -418 36 -169 131
-277 291 -329 124 -40 346 -38 472 3 l37 13 0 163 c0 120 -3 166 -12 172 -7 4
-49 6 -94 4 -133 -4 -209 29 -230 101 -5 18 -10 170 -9 343 l0 309 162 1 c89
1 166 4 170 8 10 11 12 348 1 369 -7 15 -29 18 -171 20 l-162 3 0 202 c0 111
-4 206 -9 210 -4 4 -107 8 -228 9 -191 0 -221 -2 -226 -15z"/>
<path d="M2622 2448 c-9 -9 -12 -186 -12 -734 0 -656 1 -723 16 -735 13 -11
64 -14 223 -14 179 -1 207 1 222 16 15 15 17 78 16 735 0 461 -3 723 -10 732
-13 17 -438 17 -455 0z"/>
<path d="M6299 2449 c-11 -6 -13 -110 -13 -541 1 -293 4 -551 7 -573 33 -223
127 -336 328 -391 93 -26 318 -26 419 0 76 19 216 75 258 102 29 19 42 11 42
-26 0 -53 16 -58 169 -58 76 0 145 4 152 8 19 12 19 1467 0 1479 -19 12 -434
10 -448 -2 -10 -7 -13 -127 -13 -538 l0 -529 -47 -23 c-71 -36 -145 -50 -229
-45 -65 4 -79 9 -104 33 -53 50 -54 60 -54 598 -1 398 -4 499 -14 506 -17 10
-436 11 -453 0z"/>
</g>
</symbol>
</svg>